# Blender v2.93.0 OBJ File: 'cube.blend'
# www.blender.org
mtllib cube.mtl
o Cube
v 1.000000 1.000000 -1.000000
v 1.000000 -1.000000 -1.000000
v 1.000000 1.000000 1.000000
v 1.000000 -1.000000 1.000000
v -1.000000 1.000000 -1.000000
v -1.000000 -1.000000 -1.000000
v -1.000000 1.000000 1.000000
v -1.000000 -1.000000 1.000000
vt 0.591914 0.619882
vt 0.341914 0.869882
vt 0.341914 0.619882
vt 0.279079 0.634252
vt 0.029079 0.884252
vt 0.029079 0.634252
vt 0.598543 0.119882
vt 0.348543 0.369882
vt 0.348543 0.119882
vt 0.910086 0.118858
vt 0.660086 0.368858
vt 0.660086 0.118858
vt 0.957693 0.629803
vt 0.707693 0.879803
vt 0.707693 0.629803
vt 0.271803 0.130945
vt 0.021803 0.380945
vt 0.021803 0.130945
vt 0.591914 0.869882
vt 0.279079 0.884252
vt 0.598543 0.369882
vt 0.910086 0.368858
vt 0.957693 0.879803
vt 0.271803 0.380945
vn 0.0000 1.0000 0.0000
vn 0.0000 0.0000 1.0000
vn -1.0000 0.0000 0.0000
vn 0.0000 -1.0000 0.0000
vn 1.0000 0.0000 0.0000
vn 0.0000 0.0000 -1.0000
usemtl Material
s off
f 5/1/1 3/2/1 1/3/1
f 3/4/2 8/5/2 4/6/2
f 7/7/3 6/8/3 8/9/3
f 2/10/4 8/11/4 6/12/4
f 1/13/5 4/14/5 2/15/5
f 5/16/6 2/17/6 6/18/6
f 5/1/1 7/19/1 3/2/1
f 3/4/2 7/20/2 8/5/2
f 7/7/3 5/21/3 6/8/3
f 2/10/4 4/22/4 8/11/4
f 1/13/5 3/23/5 4/14/5
f 5/16/6 1/24/6 2/17/6
